# xmcd
#
# Track frame offsets:
#	150
#	17615
#	35722
#	53115
#	74030
#	92117
#	115025
#	133710
#	154152
#	175640
#	196762
#	213582
#	231667
#
# Disc length: 3451 seconds
#
# Revision: 11
# Processed by: cddbd v1.5.2PL0 Copyright (c) Steve Scherf et al.
# Submitted via: EasyCDDAExtractor 15.3.0.1
#
DISCID=b90d790d
DTITLE=Gloria Estefan - Greatest Hits Vol. II
DYEAR=2001
DGENRE=Pop
TTITLE0=Turn The Beat Around (Classic Mix)
TTITLE1=Everlasting Love (Video Version)
TTITLE2=Reach
TTITLE3=If We Were Lovers
TTITLE4=You'll Be Mine (Party Time) (Single Mix)
TTITLE5=Heaven's What I Feel
TTITLE6=I'm Not Giving You Up
TTITLE7=Music Of My Heart
TTITLE8=Oye
TTITLE9=You Can't Walk Away From Love (Music From The Motion Picture Original 
TTITLE9=Sin)
TTITLE10=Out Of Nowhere
TTITLE11=I Got No Love
TTITLE12=Y-Tu-Conga
EXTD=
EXTT0=
EXTT1=
EXTT2=
EXTT3=
EXTT4=
EXTT5=
EXTT6=
EXTT7=
EXTT8=
EXTT9=
EXTT10=
EXTT11=
EXTT12=
PLAYORDER=
